<svg fill="#000000" xmlns="http://www.w3.org/2000/svg"  viewBox="0 0 64 64" width="64px" height="64px"><path d="M 28.970703 2.0019531 A 1.0001 1.0001 0 0 0 28.035156 2.7363281 C 26.585636 8.0512345 23.169094 14.465749 19.005859 19.865234 C 14.842625 25.264719 9.8931681 29.637661 5.6816406 31.052734 A 1.0001 1.0001 0 0 0 5.3378906 32.75 C 5.3378906 32.75 11.091882 37.660976 20.273438 41 L 5 41 A 1.0001 1.0001 0 0 0 4 42 C 4 49.285714 7.3173053 52.746693 10.445312 54.832031 A 1.0001 1.0001 0 0 0 11 55 C 12.999744 55 14.631856 53.812751 15.787109 52.728516 C 16.444858 52.111201 16.534289 51.910328 16.859375 51.492188 C 17.775674 52.66458 19.858471 55 23.677734 55 C 27.510049 55 29.607775 52.62817 30.509766 51.470703 C 31.410126 52.630956 33.501027 55 37.339844 55 C 41.045965 55 43.083832 52.808598 44.0625 51.587891 C 44.854817 52.907431 46.428657 55 50 55 A 1.0001 1.0001 0 0 0 50.599609 54.800781 C 54.695609 51.728781 57.275139 48.640026 58.832031 46.304688 C 60.388924 43.969349 60.949219 42.316406 60.949219 42.316406 A 1.0001 1.0001 0 0 0 60 41 L 50 41 A 1.0001 1.0001 0 1 0 50 43 L 58.345703 43 C 58.089976 43.584731 58.070234 43.841916 57.167969 45.195312 C 55.769962 47.292324 53.393834 50.096806 49.701172 52.931641 C 46.388815 52.72422 45.095703 49.623047 45.095703 49.623047 A 1.0001 1.0001 0 0 0 43.333984 49.451172 C 43.333984 49.451172 40.903772 53 37.339844 53 C 33.763256 53 31.347656 49.453125 31.347656 49.453125 A 1.0001 1.0001 0 0 0 29.675781 49.449219 C 29.675781 49.449219 27.237057 53 23.677734 53 C 20.095396 53 17.675781 49.451172 17.675781 49.451172 A 1.0001 1.0001 0 0 0 16.007812 49.443359 C 16.007812 49.443359 15.393716 50.35572 14.417969 51.271484 C 13.509352 52.124245 12.334145 52.826646 11.244141 52.927734 C 8.6618943 51.148968 6.3814529 48.646632 6.1074219 43 L 27.505859 43 C 33.059111 44.115112 39.321612 44.474669 46.212891 42.976562 A 1.0001 1.0001 0 0 0 46.923828 42.380859 C 50.547741 33.579931 49.250051 24.534411 46.039062 17.341797 C 42.828074 10.149182 37.813314 4.7376099 33.351562 3.0644531 A 1.0001 1.0001 0 0 0 32.15625 4.5371094 C 35.445711 9.7062617 35.23015 16.119639 33.189453 21.521484 C 32.385988 23.648303 31.244535 25.5032 30 27.134766 L 30 3 A 1.0001 1.0001 0 0 0 28.970703 2.0019531 z M 35.173828 6.4023438 C 38.303148 8.6501206 41.839623 12.846459 44.210938 18.158203 C 47.185001 24.820107 48.336381 33.058091 45.222656 41.091797 C 39.741628 42.206421 34.609358 42.208651 30 41.517578 L 30 30.324219 C 32.078503 28.19575 33.859214 25.408514 35.060547 22.228516 C 36.914567 17.320814 37.25434 11.58025 35.173828 6.4023438 z M 28 8.6191406 L 28 29.369141 C 26.606977 30.670183 25.155734 31.679817 23.757812 32.029297 A 1.0004596 1.0004596 0 1 0 24.242188 33.970703 C 25.551563 33.643359 26.800827 32.945738 28 32.074219 L 28 41 L 27.667969 41 C 16.887631 38.785076 9.9391898 33.811125 7.9101562 32.1875 C 12.312062 30.163395 16.745843 26.06886 20.587891 21.085938 C 23.590275 17.192011 26.163072 12.832757 28 8.6191406 z"/></svg>